<svg xmlns="http://www.w3.org/2000/svg" width="65" height="58" viewBox="0 0 65 58">
  <defs>
    <clipPath id="a">
      <path d="M191.281-534.986h48v-25.9h-48Z" transform="translate(-191.281 560.887)"/>
    </clipPath>
    <clipPath id="c">
      <path data-name="Rectangle 33" transform="translate(-.001)" fill="none" d="M0 0h14v16H0z"/>
    </clipPath>
    <filter id="b" x="23" y="0" width="42" height="42" filterUnits="userSpaceOnUse">
      <feOffset dy="3"/>
      <feGaussianBlur stdDeviation="3" result="blur"/>
      <feFlood flood-color="#1f343e" flood-opacity=".157"/>
      <feComposite operator="in" in2="blur"/>
      <feComposite in="SourceGraphic"/>
    </filter>
  </defs>
  <g data-name="Chrome Icon">
    <g data-name="Group 8588">
      <path data-name="Rectangle 3859" fill="none" d="M0 10h48v48H0z"/>
      <g data-name="Group 7584">
        <path d="M0 54.433a1.329 1.329 0 0 0 1.329 1.329h45.342A1.329 1.329 0 0 0 48 54.433V31.191a1.329 1.329 0 0 0-1.329-1.329H1.329A1.329 1.329 0 0 0 0 31.188Z" fill="#efeff0"/>
        <path d="M31.114 14.797h-14.3V11.24h14.3Z" fill="#abadad"/>
        <path d="M48 37.031H0V18.356h13.408v-3.557l3.407-3.557v7.114h14.294v-7.114l3.555 3.557v3.557h13.334Z" fill="#e3e4e5"/>
        <g clip-path="url(#a)" transform="translate(0 29.859)">
          <path d="M23.946 1.043a21.041 21.041 0 0 1 18.531 11.63H22.916s-3.694-.121-6.843 4.362a9.159 9.159 0 0 0-.787 7.634c-1.575-2.665-8.357-14.48-8.357-14.48s4.784-8.661 17.017-9.146" fill="#e14c40"/>
          <path d="M41.846 31.962a21.042 21.042 0 0 1-19.331 10.236c1.7-2.938 9.782-16.946 9.782-16.946s1.952-3.139-.352-8.11a9.151 9.151 0 0 0-6.214-4.5c3.1-.03 16.713 0 16.713 0s5.106 8.478-.592 19.318" fill="#ffd24d"/>
          <path d="M6.133 32.044a21.061 21.061 0 0 1 .809-21.872l9.776 16.95s1.741 3.261 7.2 3.749a9.148 9.148 0 0 0 7-3.133c-1.521 2.7-8.359 14.479-8.359 14.479s-9.891.184-16.425-10.173" fill="#00aa60"/>
          <path d="M14.732 21.797a9.166 9.166 0 0 1 9.164-9.168 9.166 9.166 0 0 1 9.164 9.168 9.166 9.166 0 0 1-9.164 9.169 9.166 9.166 0 0 1-9.164-9.169" fill="#fff"/>
          <path d="M16.71 21.795a7.188 7.188 0 0 1 7.186-7.189 7.188 7.188 0 0 1 7.186 7.189 7.188 7.188 0 0 1-7.186 7.189 7.188 7.188 0 0 1-7.186-7.189" fill="#577fc0"/>
          <path d="M23.946 1.043A20.889 20.889 0 0 1 38.383 7.08c-.106 0-21.995.07-29.027.07a21.3 21.3 0 0 1 14.59-6.107" fill="#d6483e"/>
        </g>
      </g>
    </g>
    <g data-name="Group 7588">
      <g filter="url(#b)">
        <rect data-name="Rectangle 3470" width="24" height="24" rx="8" transform="translate(32 6)" fill="#4eb3e3"/>
      </g>
      <g data-name="Group 8421">
        <g data-name="Group 22" transform="translate(37 10)" clip-path="url(#c)">
          <path data-name="Path 244" d="M8.19.572a3.15 3.15 0 0 0-.376.023 3.3 3.3 0 0 0-.9.243c-2.019.858-3.506 3.7-3.506 7.066s1.487 6.208 3.506 7.066a3.3 3.3 0 0 0 .9.243 3.15 3.15 0 0 0 .376.023c2.636 0 4.781-3.289 4.781-7.331S10.826.574 8.19.574" fill="#f8cc5d"/>
          <path data-name="Path 245" d="M3.132 5.035H1.241a10.647 10.647 0 0 0-.377 2.55h1.913a11.315 11.315 0 0 1 .355-2.55" fill="#f8cc5d"/>
          <path data-name="Path 246" d="M4.212 2.485H2.423a7.776 7.776 0 0 0-.981 1.913H3.32a8.775 8.775 0 0 1 .892-1.913" fill="#f8cc5d"/>
          <path data-name="Path 247" d="M2.777 8.222H.864a10.647 10.647 0 0 0 .377 2.55h1.891a11.318 11.318 0 0 1-.355-2.55" fill="#f8cc5d"/>
          <path data-name="Path 248" d="M6.016.595A3.162 3.162 0 0 0 5.64.572a3.733 3.733 0 0 0-2.691 1.28h1.714A5.587 5.587 0 0 1 6.018.6" fill="#f8cc5d"/>
          <path data-name="Path 249" d="M3.32 11.41H1.442a7.778 7.778 0 0 0 .981 1.913h1.789a8.78 8.78 0 0 1-.892-1.913" fill="#f8cc5d"/>
          <path data-name="Path 250" d="M4.663 13.96H2.949a3.734 3.734 0 0 0 2.691 1.275 3.148 3.148 0 0 0 .376-.023 5.587 5.587 0 0 1-1.353-1.252" fill="#f8cc5d"/>
          <path data-name="Path 251" d="M8.19-.065H5.64a4.734 4.734 0 0 0-3.872 2.383A10.158 10.158 0 0 0 .221 7.904a10.158 10.158 0 0 0 1.547 5.586 4.734 4.734 0 0 0 3.872 2.383h2.55a4.734 4.734 0 0 0 3.872-2.383 10.158 10.158 0 0 0 1.547-5.586 10.158 10.158 0 0 0-1.548-5.586A4.734 4.734 0 0 0 8.19-.065M5.64.573a3.151 3.151 0 0 1 .376.022A5.586 5.586 0 0 0 4.66 1.848H2.948A3.733 3.733 0 0 1 5.64.573M2.421 2.485h1.791a8.778 8.778 0 0 0-.891 1.913H1.442a7.778 7.778 0 0 1 .979-1.913M1.24 5.035h1.891a11.318 11.318 0 0 0-.355 2.55H.863a10.641 10.641 0 0 1 .377-2.55M.863 8.223h1.913a11.318 11.318 0 0 0 .355 2.55H1.24a10.641 10.641 0 0 1-.377-2.55m1.559 5.1a7.778 7.778 0 0 1-.981-1.913h1.88a8.778 8.778 0 0 0 .892 1.913Zm3.218 1.912a3.733 3.733 0 0 1-2.691-1.275H4.66a5.585 5.585 0 0 0 1.355 1.252 3.151 3.151 0 0 1-.376.023m2.55 0a3.151 3.151 0 0 1-.376-.023 3.3 3.3 0 0 1-.9-.243c-2.019-.858-3.506-3.7-3.506-7.066S4.895 1.695 6.915.835a3.3 3.3 0 0 1 .9-.243A3.151 3.151 0 0 1 8.19.573c2.636 0 4.781 3.289 4.781 7.331s-2.145 7.331-4.781 7.331" fill="#1f343e"/>
          <path data-name="Path 252" d="m10.506 5.986-1.617 6.392a.224.224 0 0 1-.158.167.21.21 0 0 1-.095 0 .281.281 0 0 1-.211-.263l-.2-3.686-2.055.536a.23.23 0 0 1-.217-.063.3.3 0 0 1-.09-.231l.289-4.82a.232.232 0 0 1 .165-.219l2.075-.541a.231.231 0 0 1 .221.067.3.3 0 0 1 .084.239l-.259 2.534 1.766-.461a.234.234 0 0 1 .235.082.3.3 0 0 1 .064.263" fill="#ff007c"/>
          <path data-name="Path 253" d="m10.207 5.64-1.766.461.259-2.534a.3.3 0 0 0-.084-.239.231.231 0 0 0-.221-.067l-2.075.541a.232.232 0 0 0-.165.219l-.29 4.82a.3.3 0 0 0 .09.231.23.23 0 0 0 .217.063l2.055-.536.2 3.686a.281.281 0 0 0 .211.263.21.21 0 0 0 .1 0 .224.224 0 0 0 .157-.167l1.617-6.392a.3.3 0 0 0-.064-.263.235.235 0 0 0-.235-.082" fill="#1f343e"/>
        </g>
      </g>
    </g>
  </g>
</svg>
