<svg xmlns="http://www.w3.org/2000/svg" width="18.001" height="17.996" viewBox="0 0 18.001 17.996">
  <path data-name="Icon ionic-ios-close" d="m10.896 8.998 5.719-5.715a1.341 1.341 0 0 0-1.9-1.894L9 7.104 3.285 1.389a1.34 1.34 0 1 0-1.894 1.894l5.715 5.715-5.712 5.713a1.34 1.34 0 1 0 1.894 1.894l5.715-5.715 5.712 5.716a1.342 1.342 0 1 0 1.9-1.895Z" fill="#bdc1c3"/>
  <path data-name="Icon ionic-ios-close - Outline" d="M2.341 1a1.336 1.336 0 0 0-.947 2.283l5.715 5.715-5.715 5.713a1.34 1.34 0 0 0 1.894 1.894l5.715-5.715 5.712 5.716a1.342 1.342 0 0 0 1.9-1.895L10.9 8.996l5.715-5.713a1.341 1.341 0 0 0-1.9-1.894L9 7.104 3.285 1.389a1.335 1.335 0 0 0-.947-.39m0-1a2.323 2.323 0 0 1 1.654.683l5.007 5.007L14.006.682a2.34 2.34 0 0 1 3.309 3.308l-5 5.008 5 5.007a2.339 2.339 0 0 1-3.305 3.306l-5.007-5.007-5.008 5.007a2.34 2.34 0 1 1-3.308-3.308l5.007-5.007L.687 3.989a2.336 2.336 0 0 1 1.654-3.99Z" fill="#1f343e"/>
</svg>
