<svg xmlns="http://www.w3.org/2000/svg" width="144" height="144" viewBox="0 0 144 144">
  <g data-name="Collect coins img">
    <path data-name="Rectangle 4397" fill="none" d="M0 0h144v144H0z"/>
    <path data-name="Path 21118" d="M138.069 64.895a8.385 8.385 0 0 0-11.811.994l-19.189 19.723h.02a8.579 8.579 0 0 0-8.234-6.173H67.074A33.556 33.556 0 0 0 53.6 76.634c-13.276 0-24.756 6.436-30.238 18.631l25.368 25.239.047-.037 4.368-4.214a11.215 11.215 0 0 1 7.791-3.147h37.39a22.35 22.35 0 0 0 15.59-6.336l25.15-30.068a8.381 8.381 0 0 0-.994-11.81Zm0 0" fill="#fed2a4"/>
    <path data-name="Path 21120" d="m48.205 127.809-13.587 13.386-31.5-31.741 13.346-13.386a5.613 5.613 0 0 1 7.936 0l23.8 23.8a5.613 5.613 0 0 1 0 7.936Zm0 0" fill="#ed6f82"/>
    <path data-name="Path 21121" d="M66.405 97.778a2.807 2.807 0 1 0-3.969 0 2.81 2.81 0 0 0 3.969 0Zm0 0" fill="#1f343e"/>
    <path data-name="Path 21123" d="M32.694 143.17a2.8 2.8 0 0 0 3.959.023l13.6-13.4a8.479 8.479 0 0 0 2-8.706l2.925-2.822a8.365 8.365 0 0 1 5.841-2.36h37.288a25.113 25.113 0 0 0 17.609-7.155c.2-.19-1.481 1.785 25.44-30.4a11.221 11.221 0 0 0-17.073-14.56L107.73 80.805a11.273 11.273 0 0 0-8.721-4.177h-31.28a36.185 36.185 0 0 0-14.046-2.804c-13.508 0-25.3 6.24-31.632 17.938a8.379 8.379 0 0 0-7.5 2.325L1.203 107.472a2.806 2.806 0 0 0 0 3.957Zm20.989-63.736a30.618 30.618 0 0 1 12.349 2.571 2.8 2.8 0 0 0 1.125.236h31.852a5.611 5.611 0 0 1 0 11.222H76.122a2.805 2.805 0 0 0 0 5.61h22.887a11.205 11.205 0 0 0 11.121-12.69c16.012-16.461 18.27-18.774 18.367-18.89a5.612 5.612 0 1 1 8.567 7.25l-25.16 30.082a19.531 19.531 0 0 1-13.6 5.469H61.016a13.946 13.946 0 0 0-9.737 3.933l-2.384 2.3-21.976-21.975c5.136-9.637 14.774-15.118 26.761-15.118ZM18.517 98.052a2.8 2.8 0 0 1 3.473-.395c.486.3-.909-.973 24.3 24.2a2.811 2.811 0 0 1 .015 3.954l-11.597 11.423-27.563-27.776Zm0 0" fill="#1f343e"/>
    <path data-name="Path 21124" d="M80.539 14.453v3.2a8.415 8.415 0 0 0 2.755 16.35 2.855 2.855 0 0 1 2.838 2.482 2.809 2.809 0 0 1-2.788 3.13 5.039 5.039 0 0 1-3.6-2.072 2.859 2.859 0 0 0-3.61-.666 2.808 2.808 0 0 0-.727 4.227 11.636 11.636 0 0 0 5.132 3.654v3.187a2.864 2.864 0 0 0 2.388 2.863 2.807 2.807 0 0 0 3.222-2.776v-3.289a8.415 8.415 0 0 0-2.755-16.35 2.855 2.855 0 0 1-2.838-2.482 2.809 2.809 0 0 1 2.788-3.13 4.448 4.448 0 0 1 2.967 1.4 2.879 2.879 0 0 0 3.672.315 2.807 2.807 0 0 0 .3-4.284 10.839 10.839 0 0 0-4.132-2.583V14.37a2.806 2.806 0 0 0-3.222-2.776 2.862 2.862 0 0 0-2.388 2.862Zm0 0"/>
    <g data-name="Group 12247">
      <g data-name="Group 9378">
        <path data-name="Path 244" d="M89.014 2.896a12.408 12.408 0 0 0-1.481.089 12.992 12.992 0 0 0-3.544.956c-7.957 3.382-13.816 14.591-13.816 27.861s5.859 24.479 13.817 27.861a12.992 12.992 0 0 0 3.544.956 12.408 12.408 0 0 0 1.481.089c10.389 0 18.841-12.967 18.841-28.906S99.403 2.896 89.014 2.896" fill="#f8cc5d"/>
        <path data-name="Path 245" d="M69.052 20.494h-7.453a41.955 41.955 0 0 0-1.484 10.048h7.538a44.587 44.587 0 0 1 1.4-10.048" fill="#f8cc5d"/>
        <path data-name="Path 246" d="M73.311 10.439H66.26a30.641 30.641 0 0 0-3.865 7.536h7.4a34.578 34.578 0 0 1 3.516-7.536" fill="#f8cc5d"/>
        <path data-name="Path 247" d="M67.653 33.062h-7.538a41.954 41.954 0 0 0 1.484 10.048h7.452a44.6 44.6 0 0 1-1.4-10.048" fill="#f8cc5d"/>
        <path data-name="Path 248" d="M80.425 2.985a12.459 12.459 0 0 0-1.481-.089c-3.93 0-7.582 1.856-10.605 5.024h6.745a22.014 22.014 0 0 1 5.341-4.935" fill="#f8cc5d"/>
        <path data-name="Path 249" d="M69.794 45.63h-7.4a30.648 30.648 0 0 0 3.865 7.536h7.051a34.6 34.6 0 0 1-3.516-7.536" fill="#f8cc5d"/>
        <path data-name="Path 250" d="M75.084 55.684h-6.745c3.023 3.169 6.675 5.024 10.605 5.024a12.4 12.4 0 0 0 1.481-.089 22.011 22.011 0 0 1-5.341-4.935" fill="#f8cc5d"/>
        <path data-name="Path 251" d="M89.002.384H78.948c-5.804 0-11.225 3.336-15.264 9.394-3.933 5.901-6.1 13.722-6.1 22.024s2.167 16.124 6.1 22.025c4.039 6.058 9.459 9.394 15.264 9.394h10.054c5.8 0 11.225-3.336 15.264-9.394 3.934-5.9 6.1-13.723 6.1-22.024s-2.167-16.124-6.1-22.024C100.228 3.72 94.807.384 89.002.384M78.948 2.897a12.421 12.421 0 0 1 1.481.089 22.022 22.022 0 0 0-5.345 4.938h-6.747c3.024-3.17 6.679-5.027 10.611-5.027m-12.684 7.541h7.055a34.608 34.608 0 0 0-3.518 7.54h-7.4a30.665 30.665 0 0 1 3.867-7.54m-4.667 10.054h7.456a44.623 44.623 0 0 0-1.4 10.054h-7.541a41.956 41.956 0 0 1 1.485-10.054m-1.485 12.567h7.542a44.623 44.623 0 0 0 1.4 10.054h-7.457a41.956 41.956 0 0 1-1.485-10.054m6.148 20.108a30.665 30.665 0 0 1-3.867-7.54h7.4a34.608 34.608 0 0 0 3.518 7.54Zm12.684 7.54c-3.932 0-7.587-1.857-10.611-5.027h6.747a22.021 22.021 0 0 0 5.344 4.938 12.42 12.42 0 0 1-1.481.089m10.054 0a12.42 12.42 0 0 1-1.481-.089 13.005 13.005 0 0 1-3.545-.956c-7.961-3.378-13.824-14.59-13.824-27.86S76.014 7.324 83.975 3.943a13 13 0 0 1 3.546-.959 12.421 12.421 0 0 1 1.481-.089c10.394 0 18.851 12.967 18.851 28.9s-8.457 28.9-18.851 28.9" fill="#1f343e"/>
        <path data-name="Path 252" d="m98.129 24.24-6.372 25.211a.883.883 0 0 1-.621.66.827.827 0 0 1-.374.009 1.107 1.107 0 0 1-.833-1.038l-.776-14.537-8.1 2.114a.906.906 0 0 1-.854-.248 1.178 1.178 0 0 1-.353-.911l1.14-19.01a.915.915 0 0 1 .651-.862l8.175-2.134a.91.91 0 0 1 .871.264 1.178 1.178 0 0 1 .333.941l-1.022 10 6.958-1.816a.923.923 0 0 1 .925.322 1.174 1.174 0 0 1 .251 1.039" fill="#ff007c"/>
        <path data-name="Path 253" d="m96.954 22.878-6.958 1.816 1.022-10a1.18 1.18 0 0 0-.333-.941.91.91 0 0 0-.871-.264l-8.175 2.134a.915.915 0 0 0-.651.862L79.845 35.5a1.177 1.177 0 0 0 .353.911.907.907 0 0 0 .854.248l8.1-2.114.777 14.537a1.106 1.106 0 0 0 .833 1.038.827.827 0 0 0 .374-.009.883.883 0 0 0 .621-.66l6.372-25.211a1.174 1.174 0 0 0-.251-1.039.924.924 0 0 0-.925-.322" fill="#1f343e"/>
      </g>
    </g>
  </g>
</svg>
