<svg xmlns="http://www.w3.org/2000/svg" width="144" height="144" viewBox="0 0 144 144">
  <g data-name="Invite Friends Img">
    <path data-name="Rectangle 4400" fill="none" d="M0 0h144v144H0z"/>
    <path data-name="Path 21103" d="M75.557 90.521a5.491 5.491 0 0 0-7.114 0l-56.634 48.158a5.467 5.467 0 0 0 3.747 1.485h112.888a5.467 5.467 0 0 0 3.747-1.485Z" fill="#f8f4f9"/>
    <path data-name="Path 21104" d="m81.701 95.764 50.49 42.911a5.476 5.476 0 0 0 1.747-4.011v-75.19Z" fill="#f8f4f9"/>
    <path data-name="Path 21105" d="m11.809 138.675 50.49-42.911-52.236-36.29v75.191a5.474 5.474 0 0 0 1.746 4.01Z" fill="#f8f4f9"/>
    <path data-name="Path 21108" d="M25.663 46.248v24.1l-15.6-10.837Z" fill="#bdc1c3"/>
    <path data-name="Path 21110" d="M118.334 46.248v24.1l15.6-10.84Z" fill="#bdc1c3"/>
    <path data-name="Path 21112" d="m62.279 95.782 6.165-5.243a5.49 5.49 0 0 1 7.113 0l6.165 5.243 36.612-25.45V3.797H25.667v66.534Z" fill="#4eb3e3"/>
    <g data-name="Group 12236">
      <path data-name="Path 21116" d="M133.938 90.677a2.061 2.061 0 0 0 2.061-2.061V59.508a2.085 2.085 0 0 0-.726-1.571l-14.871-12.638V3.838a2.061 2.061 0 0 0-2.061-2.061H25.659a2.061 2.061 0 0 0-2.061 2.061v18.619a2.062 2.062 0 1 0 4.123 0V5.9h88.559v63.366L81.85 93.185l-4.958-4.213a7.526 7.526 0 0 0-9.784 0l-4.958 4.213-34.434-23.919V30.702a2.062 2.062 0 0 0-4.123 0v14.6L8.726 57.938A2.085 2.085 0 0 0 8 59.509v75.159a7.579 7.579 0 0 0 2.4 5.514c1.525 1.426 0 0 0 0a7.527 7.527 0 0 0 5.155 2.039h112.891a7.527 7.527 0 0 0 5.155-2.039 7.579 7.579 0 0 0 2.4-5.514V96.86a2.062 2.062 0 0 0-4.123 0v37.808a3.414 3.414 0 0 1-.13.925L85.099 95.947l46.778-32.5v25.168a2.061 2.061 0 0 0 2.061 2.062ZM23.598 50.709v15.693l-10.16-7.058Zm-7.928 87.39 20.552-17.466a2.061 2.061 0 0 0-2.67-3.141l-21.3 18.1a3.418 3.418 0 0 1-.13-.925V63.45L58.9 95.95l-19.066 16.2a2.061 2.061 0 0 0 2.67 3.141l27.274-23.18a3.418 3.418 0 0 1 4.444 0l54.108 45.986Zm104.732-71.7v-15.69l10.16 8.635Z" fill="#1f343e"/>
    </g>
    <g data-name="Group 12246">
      <g data-name="Group 9378">
        <path data-name="Path 244" d="M75.845 24.174a9.486 9.486 0 0 0-1.132.068 9.932 9.932 0 0 0-2.708.731c-6.082 2.581-10.56 11.147-10.56 21.286s4.478 18.7 10.56 21.286a9.932 9.932 0 0 0 2.708.731 9.485 9.485 0 0 0 1.132.068c7.94 0 14.4-9.907 14.4-22.085s-6.46-22.085-14.4-22.085" fill="#f8cc5d"/>
        <path data-name="Path 245" d="M60.6 37.618h-5.7a32.065 32.065 0 0 0-1.134 7.68h5.761a34.077 34.077 0 0 1 1.069-7.68" fill="#f8cc5d"/>
        <path data-name="Path 246" d="M63.853 29.936h-5.386a23.419 23.419 0 0 0-2.954 5.76h5.656a26.428 26.428 0 0 1 2.684-5.76" fill="#f8cc5d"/>
        <path data-name="Path 247" d="M59.531 47.22H53.77a32.065 32.065 0 0 0 1.134 7.68h5.7a34.086 34.086 0 0 1-1.069-7.68" fill="#f8cc5d"/>
        <path data-name="Path 248" d="M69.29 24.242a9.523 9.523 0 0 0-1.132-.068 11.244 11.244 0 0 0-8.105 3.84h5.155a16.825 16.825 0 0 1 4.082-3.772" fill="#f8cc5d"/>
        <path data-name="Path 249" d="M61.168 56.822h-5.656a23.424 23.424 0 0 0 2.954 5.76h5.387a26.442 26.442 0 0 1-2.687-5.76" fill="#f8cc5d"/>
        <path data-name="Path 250" d="M65.208 64.504h-5.155a11.244 11.244 0 0 0 8.105 3.84 9.486 9.486 0 0 0 1.132-.068 16.824 16.824 0 0 1-4.082-3.772" fill="#f8cc5d"/>
        <path data-name="Path 251" d="M75.841 22.254h-7.682c-4.435 0-8.576 2.549-11.662 7.177a30.6 30.6 0 0 0-4.661 16.828 30.6 30.6 0 0 0 4.661 16.828c3.086 4.628 7.227 7.177 11.662 7.177h7.682c4.435 0 8.577-2.549 11.662-7.177a30.6 30.6 0 0 0 4.661-16.828 30.6 30.6 0 0 0-4.66-16.828c-3.086-4.628-7.228-7.177-11.663-7.177m-7.682 1.92a9.491 9.491 0 0 1 1.132.068 16.826 16.826 0 0 0-4.083 3.773h-5.156a11.246 11.246 0 0 1 8.107-3.841m-9.691 5.762h5.39a26.442 26.442 0 0 0-2.688 5.761h-5.657a23.429 23.429 0 0 1 2.955-5.761m-3.563 7.681h5.7a34.094 34.094 0 0 0-1.069 7.682h-5.765a32.056 32.056 0 0 1 1.135-7.682m-1.135 9.6h5.765a34.094 34.094 0 0 0 1.069 7.682h-5.7a32.056 32.056 0 0 1-1.135-7.682m4.7 15.363a23.43 23.43 0 0 1-2.955-5.761h5.655a26.442 26.442 0 0 0 2.688 5.761Zm9.691 5.761a11.246 11.246 0 0 1-8.107-3.841h5.156a16.825 16.825 0 0 0 4.083 3.773 9.489 9.489 0 0 1-1.132.068m7.682 0a9.489 9.489 0 0 1-1.132-.068 9.936 9.936 0 0 1-2.709-.731c-6.085-2.581-10.566-11.144-10.566-21.283S65.917 27.554 72 24.973a9.936 9.936 0 0 1 2.709-.731 9.491 9.491 0 0 1 1.132-.068c7.942 0 14.4 9.907 14.4 22.085s-6.458 22.085-14.4 22.085" fill="#1f343e"/>
        <path data-name="Path 252" d="m82.816 40.482-4.875 19.259a.675.675 0 0 1-.474.5.632.632 0 0 1-.286.007.846.846 0 0 1-.637-.793l-.593-11.1-6.19 1.615a.693.693 0 0 1-.652-.189.9.9 0 0 1-.27-.7l.871-14.521a.7.7 0 0 1 .5-.659l6.248-1.63a.7.7 0 0 1 .665.2.9.9 0 0 1 .254.719l-.781 7.635 5.318-1.388a.706.706 0 0 1 .707.246.9.9 0 0 1 .192.793" fill="#ff007c"/>
        <path data-name="Path 253" d="m81.917 39.442-5.318 1.388.781-7.635a.9.9 0 0 0-.254-.719.7.7 0 0 0-.665-.2l-6.248 1.63a.7.7 0 0 0-.5.659l-.872 14.519a.9.9 0 0 0 .27.7.694.694 0 0 0 .653.189l6.19-1.615.593 11.1a.845.845 0 0 0 .636.793.632.632 0 0 0 .286-.007.675.675 0 0 0 .474-.5l4.87-19.259a.9.9 0 0 0-.192-.793.706.706 0 0 0-.707-.246" fill="#1f343e"/>
      </g>
    </g>
  </g>
</svg>
