<svg xmlns="http://www.w3.org/2000/svg" width="20.285" height="18" viewBox="0 0 20.285 18">
  <g data-name="Group 1149">
    <path data-name="fill" d="M2.829 17C1.819 17 1 16.4 1 15.667s.819-1.334 1.829-1.334h14.628c1.01 0 1.829.6 1.829 1.334S18.467 17 17.457 17Zm-.523-6.667a1.333 1.333 0 0 1 0-2.666h15.672a1.333 1.333 0 0 1 0 2.666Zm0-6.666A1.321 1.321 0 0 1 1 2.333 1.32 1.32 0 0 1 2.306 1h15.672a1.319 1.319 0 0 1 1.306 1.333 1.32 1.32 0 0 1-1.306 1.334Z" fill="#bdc1c3"/>
    <path data-name="fill - Outline" d="M17.457 17c1.01 0 1.829-.6 1.829-1.333s-.819-1.334-1.829-1.334H2.829c-1.01 0-1.829.6-1.829 1.334S1.819 17 2.829 17h14.628m.521-6.667a1.333 1.333 0 0 0 0-2.666H2.306a1.333 1.333 0 0 0 0 2.666h15.672m0-6.666a1.32 1.32 0 0 0 1.306-1.334A1.319 1.319 0 0 0 17.978 1H2.306A1.32 1.32 0 0 0 1 2.333a1.321 1.321 0 0 0 1.306 1.334h15.672M17.457 18H2.829A2.589 2.589 0 0 1 0 15.667a2.589 2.589 0 0 1 2.829-2.334h14.628a2.589 2.589 0 0 1 2.829 2.334A2.589 2.589 0 0 1 17.457 18Zm.521-6.667H2.306a2.333 2.333 0 0 1 0-4.666h15.672a2.333 2.333 0 0 1 0 4.666Zm0-6.666H2.306A2.323 2.323 0 0 1 0 2.333 2.322 2.322 0 0 1 2.306 0h15.672a2.322 2.322 0 0 1 2.306 2.333 2.323 2.323 0 0 1-2.306 2.334Z" fill="#1f343e"/>
  </g>
</svg>
